<svg version="1.1" id="Layer_1" xmlns="http://www.w3.org/2000/svg" xmlns:xlink="http://www.w3.org/1999/xlink" x="0px" y="0px"
	 width="100%" viewBox="0 0 1080 1080" enable-background="new 0 0 1080 1080" xml:space="preserve">
<path fill="#FAD8D6" opacity="1.000000" stroke="none" 
	d="
M1081.000000,102.000015 
	C1081.000000,394.362701 1081.000000,686.725403 1080.665039,979.224731 
	C1079.855225,981.009827 1079.321777,982.644104 1078.914307,984.309204 
	C1071.897827,1012.972595 1057.554443,1037.040894 1034.138184,1055.333374 
	C1018.657776,1067.426514 1001.256470,1075.392578 981.913086,1079.070679 
	C981.179626,1079.210205 980.633484,1080.334595 980.000000,1081.000000 
	C687.637329,1081.000000 395.274597,1081.000000 102.775291,1080.665039 
	C100.990044,1079.855225 99.355736,1079.321777 97.690613,1078.914307 
	C69.027245,1071.897827 44.959110,1057.554443 26.666674,1034.138184 
	C14.573617,1018.657776 6.607303,1001.256592 2.929325,981.913208 
	C2.789850,981.179688 1.665426,980.633484 0.999994,980.000000 
	C1.000000,687.637329 1.000000,395.274597 1.334931,102.775307 
	C2.144754,100.990089 2.678228,99.355820 3.085821,97.690720 
	C10.102245,69.027306 24.445534,44.959003 47.861858,26.666588 
	C63.342243,14.573584 80.743431,6.607255 100.086784,2.929319 
	C100.820290,2.789851 101.366508,1.665436 102.000000,0.999999 
	C394.362701,1.000000 686.725403,1.000000 979.224731,1.334915 
	C981.009888,2.144722 982.644104,2.678194 984.309204,3.085783 
	C1012.972595,10.102276 1037.040894,24.445518 1055.333374,47.861923 
	C1067.426270,63.342327 1075.392700,80.743439 1079.070923,100.086731 
	C1079.210327,100.820244 1080.334595,101.366508 1081.000000,102.000015 
M1056.790039,161.977234 
	C1056.799805,150.478867 1056.811157,138.980499 1056.816528,127.482132 
	C1056.817017,126.482880 1057.009888,125.410866 1056.722290,124.495522 
	C1053.560913,114.433846 1051.152344,104.023788 1046.859497,94.462540 
	C1042.942993,85.739456 1037.086182,77.863106 1031.858643,69.759315 
	C1025.493042,59.891338 1016.126892,52.951431 1006.940552,46.128151 
	C996.870483,38.648479 985.194763,34.222633 973.048889,30.805595 
	C963.229309,28.043009 953.580383,26.046316 943.240723,26.052542 
	C674.601501,26.214333 405.962158,26.227417 137.323074,25.986712 
	C127.877556,25.978249 119.098518,28.131161 110.379250,30.505518 
	C95.890182,34.451061 82.740837,41.491955 70.701233,50.647171 
	C54.141766,63.239399 42.859421,79.749947 34.782013,98.547684 
	C28.718887,112.657784 26.991974,127.503082 27.010294,142.970779 
	C27.262575,355.948792 27.180233,568.927185 27.185225,781.905457 
	C27.185280,784.237183 27.255239,786.568970 27.081125,789.617859 
	C27.117714,790.111877 27.154303,790.605957 27.067188,792.017395 
	C27.045107,848.180176 27.018272,904.343018 27.030918,960.505798 
	C27.031206,961.786865 27.326162,963.119629 27.741732,964.340454 
	C30.360762,972.035156 32.954254,979.741394 35.768040,987.365662 
	C36.939850,990.540771 38.274357,993.766296 40.157852,996.546936 
	C45.206650,1004.000793 49.929504,1011.844421 56.020786,1018.378174 
	C62.783493,1025.631836 70.638321,1031.970337 78.533218,1038.036133 
	C86.079636,1043.834229 94.999130,1047.051880 103.968781,1050.361084 
	C111.574066,1053.166870 118.850731,1056.023560 127.071449,1056.022705 
	C398.890747,1055.995361 670.710083,1055.983154 942.529358,1056.049194 
	C956.244568,1056.052612 969.289307,1055.021851 982.520996,1049.719849 
	C998.276367,1043.406616 1011.984619,1034.806519 1024.057617,1023.321045 
	C1032.677979,1015.120056 1039.579590,1005.431702 1044.943237,994.816895 
	C1047.643311,989.473450 1049.646362,983.724182 1051.453491,977.997070 
	C1053.590454,971.224121 1056.763672,964.278687 1056.770752,957.405212 
	C1057.041748,696.085693 1057.000000,434.765778 1057.000000,173.445923 
	C1057.000000,171.533051 1057.000000,169.620178 1057.000000,166.799973 
	C1050.540527,170.721649 1044.839844,174.182724 1038.924927,177.773834 
	C1041.344116,183.349030 1043.175049,189.253372 1046.354736,194.309418 
	C1048.512329,197.740372 1047.705078,199.370255 1045.187500,201.261185 
	C1036.875366,207.504303 1028.490601,213.650940 1020.190063,219.909470 
	C1016.761047,222.494873 1013.418396,222.964828 1009.112915,221.701477 
	C997.053040,218.162704 984.968323,214.320724 972.616333,212.255951 
	C953.791199,209.109146 936.092773,200.858414 916.740295,200.371429 
	C906.899597,200.123795 896.917358,198.278778 887.580627,203.198624 
	C885.127258,204.491364 882.644775,205.729462 880.203125,207.043777 
	C872.800415,211.028656 863.712524,211.809219 858.065979,219.230133 
	C856.241699,221.627701 853.112000,222.985916 850.824402,225.086349 
	C845.461182,230.010818 839.681580,234.633850 835.100403,240.223053 
	C827.843323,249.076996 821.206299,258.469513 814.743164,267.932068 
	C811.052124,273.335968 807.588745,279.078644 805.198181,285.132874 
	C803.067688,290.528625 802.876831,296.655060 801.264038,302.297272 
	C797.171021,316.616486 793.989807,331.143433 793.145569,345.980804 
	C792.390991,359.242889 789.047119,371.445251 783.275208,383.396576 
	C774.245056,402.094452 763.684448,420.091095 758.521545,440.594421 
	C754.470215,456.683563 748.496643,472.278351 743.974121,488.261688 
	C737.726074,510.343323 731.796753,532.522583 726.181396,554.773743 
	C720.799622,576.099182 716.039795,597.581055 710.905029,618.969788 
	C709.389099,625.284485 707.493958,631.241699 702.536987,636.210205 
	C695.555359,643.208069 689.537842,651.157288 682.904236,658.515930 
	C677.132874,664.918152 671.698914,671.862305 664.972046,677.097229 
	C658.479431,682.149719 650.530884,685.335144 643.200439,689.301086 
	C642.505432,689.677063 641.664917,689.803101 640.878540,689.988342 
	C632.132751,692.049072 623.224670,693.593323 614.681946,696.294128 
	C606.227661,698.966919 597.835876,700.595032 588.973022,700.024658 
	C581.237305,699.526794 573.482178,699.329224 565.735657,699.000610 
	C564.407593,698.944275 563.079285,698.889954 561.750793,698.844666 
	C553.973450,698.579285 546.144348,697.624634 538.429321,698.199280 
	C522.864197,699.358704 507.386780,701.675537 491.824860,702.901917 
	C477.610077,704.022217 463.325653,704.238892 449.088135,705.116455 
	C447.232880,705.230896 444.227753,706.587341 443.880585,707.921509 
	C442.122467,714.677979 437.664703,717.390015 431.226288,717.913330 
	C430.575287,717.966248 429.923035,718.150452 429.298157,718.355286 
	C423.604919,720.220886 418.035797,722.703979 412.203125,723.854248 
	C401.130432,726.037903 390.379669,728.313049 380.100464,733.709106 
	C366.137085,741.039185 351.310730,746.610229 338.940704,756.893005 
	C332.925110,761.893616 325.631958,765.355408 319.605530,770.345154 
	C307.711090,780.193298 296.453186,790.807983 284.615540,800.727966 
	C278.830994,805.575500 272.291107,809.513733 266.179230,813.981384 
	C262.221710,816.874329 258.504639,820.098267 254.524399,822.957520 
	C250.692612,825.710083 246.646118,828.162170 242.722427,830.788818 
	C240.087753,832.552429 237.502655,834.390137 234.724075,836.313293 
	C235.811615,839.279053 236.289658,842.483643 230.810501,843.221008 
	C229.898132,843.343811 229.231094,845.135925 228.410675,846.123413 
	C225.630798,849.469482 223.044022,852.297119 217.758209,852.229492 
	C211.777191,852.152832 207.111237,851.111633 204.033752,845.610107 
	C203.282349,844.266846 201.893768,843.245239 200.695435,842.192688 
	C194.848053,837.057190 194.816345,834.087769 200.142700,828.303833 
	C204.943344,823.090698 209.730621,817.828979 214.037338,812.215454 
	C215.711105,810.033691 216.912903,806.807800 216.844925,804.094666 
	C216.601593,794.382935 215.660019,784.690369 215.157425,774.981506 
	C215.089981,773.678223 215.804047,772.186401 216.532211,771.015808 
	C219.567093,766.136902 222.745728,761.347412 226.860275,755.000000 
	C203.442505,755.000000 181.356430,754.800171 159.278610,755.138672 
	C153.664688,755.224731 148.966537,754.269287 144.921188,750.402283 
	C143.994690,749.516541 142.977570,748.725647 141.829422,747.743286 
	C136.940765,754.297241 132.355606,760.652771 127.551994,766.838623 
	C118.890289,777.992798 109.876991,788.881775 101.472900,800.224060 
	C98.283409,804.528625 95.165077,806.658020 89.615463,805.906860 
	C75.623512,804.012939 61.582573,802.429443 47.526253,801.088623 
	C42.162544,800.577026 37.067471,800.232239 33.198662,795.802856 
	C31.644468,794.023438 29.619555,792.655151 27.957581,790.422791 
	C27.991158,789.961975 28.024734,789.501099 28.677713,788.790955 
	C34.761665,782.728638 40.530960,776.304199 46.999641,770.684814 
	C58.062035,761.074524 69.329826,751.666443 80.936630,742.725586 
	C96.280746,730.905884 111.976448,719.538208 127.638641,708.137817 
	C134.585693,703.081116 141.776672,698.353760 148.936218,693.596191 
	C157.787979,687.714233 166.657700,681.851807 175.699768,676.272888 
	C176.870682,675.550293 180.031876,675.915955 180.720398,676.882446 
	C187.046570,685.761536 186.529724,698.993164 179.709915,707.765747 
	C176.537674,711.846313 173.082932,715.707214 169.334396,720.169861 
	C175.141739,721.124634 180.847794,722.842834 186.548294,722.824707 
	C196.089096,722.794312 205.657852,721.942261 215.155609,720.897522 
	C223.474030,719.982544 231.717377,718.365295 239.982132,716.987915 
	C247.696091,715.702271 255.408615,714.396667 263.086487,712.916687 
	C264.402649,712.662964 265.908905,711.762939 266.697784,710.695923 
	C269.684448,706.656494 272.478912,702.468872 275.217834,698.253906 
	C278.047546,693.899292 280.803619,689.491577 283.403931,684.998352 
	C283.852905,684.222473 283.347626,682.905701 283.315796,681.837830 
	C283.253418,679.742615 282.545593,677.366516 283.285492,675.601624 
	C285.905701,669.351501 289.125427,663.356018 291.923645,657.176086 
	C294.498352,651.489929 292.021423,642.959778 286.940948,639.411316 
	C284.516357,637.717773 285.262146,636.107727 286.632568,634.081177 
	C291.922485,626.258545 297.182831,618.410156 302.208984,610.417175 
	C304.858887,606.203064 307.002380,601.670471 309.724518,596.634155 
	C308.492188,595.564697 306.420959,594.406921 305.366425,592.641724 
	C304.580017,591.325317 304.348846,588.658936 305.167389,587.558716 
	C313.869598,575.861450 322.840607,564.364441 331.717957,552.797241 
	C336.335205,546.780945 335.943085,541.804077 331.188446,535.531616 
	C328.810577,532.394714 327.562866,533.011719 324.820953,535.195496 
	C320.214172,538.864380 315.130676,542.041138 309.900970,544.757263 
	C308.308502,545.584290 304.960144,544.953857 303.480713,543.717163 
	C298.906921,539.893921 295.199738,534.985840 290.459015,531.427673 
	C287.429504,529.153870 287.607300,527.295959 289.078247,524.868713 
	C292.634369,519.000488 296.223999,513.140991 300.079956,507.468170 
	C312.396057,489.349274 324.842133,471.318695 337.231140,453.249359 
	C339.335388,450.180328 341.311340,447.017792 343.531769,444.036407 
	C344.641876,442.545868 346.381287,440.102051 347.468933,440.283997 
	C350.703491,440.825104 354.761810,441.590698 356.682251,443.827637 
	C361.525970,449.469727 365.904236,455.676727 369.469788,462.203278 
	C372.882446,468.450043 381.024170,473.801117 375.087708,482.742584 
	C374.989227,482.890900 375.290894,483.304871 375.611694,484.114227 
	C378.955444,483.422119 382.515015,483.111420 385.755127,481.926819 
	C392.702911,479.386780 398.857788,475.818146 401.137726,467.908630 
	C402.020081,464.847595 403.067413,461.538086 405.016632,459.133972 
	C411.946960,450.586304 419.541748,442.575195 426.424957,433.992096 
	C434.159515,424.347351 434.157990,423.983826 426.154572,414.893707 
	C423.262695,411.609131 424.463684,410.190277 426.737152,407.617798 
	C431.771179,401.921722 439.076172,400.450684 445.161072,396.786163 
	C450.868927,393.348694 455.502594,393.541443 460.304108,397.796692 
	C460.881439,398.308350 461.600952,398.659515 462.407227,399.184509 
	C464.807678,396.449219 466.996735,393.866211 469.281189,391.370514 
	C473.864258,386.363739 477.979858,380.758362 483.213715,376.551147 
	C497.030090,365.445038 511.178925,354.731903 525.503479,344.284668 
	C538.042053,335.140045 551.174805,326.811066 563.728943,317.686707 
	C581.342651,304.885040 601.402405,297.934814 621.977295,291.858643 
	C640.265320,286.457825 658.347961,280.365479 676.582092,274.776917 
	C686.843689,271.631866 697.237000,268.918213 707.553894,265.951019 
	C712.245728,264.601624 717.514282,264.053680 721.438721,261.486969 
	C730.005859,255.883591 737.997009,249.365692 745.981689,242.921753 
	C749.341064,240.210617 752.056519,236.709488 755.120667,233.623108 
	C761.926392,226.768051 768.667053,219.843872 775.624634,213.145645 
	C781.580322,207.411911 787.762085,201.910080 793.915161,196.385117 
	C800.258789,190.689026 806.538269,184.905533 813.126099,179.502151 
	C818.868835,174.792023 824.858398,170.346664 831.001465,166.170547 
	C837.694031,161.620911 844.193237,155.454102 851.658447,153.659317 
	C865.925232,150.229294 880.589294,146.319122 895.487488,148.179779 
	C907.320251,149.657608 916.574158,144.553040 925.629150,138.682495 
	C931.460388,134.901962 936.799072,130.239517 941.900024,125.480865 
	C951.625305,116.408287 962.599609,109.765900 975.619934,106.812790 
	C977.270508,106.438423 979.608215,106.586624 980.890442,107.513023 
	C987.820068,112.519310 994.292664,118.177902 1001.354431,122.976418 
	C1009.355835,128.413467 1016.188171,133.997360 1017.287720,144.760132 
	C1017.800720,149.782150 1022.594421,151.177963 1027.068970,148.309418 
	C1031.774902,145.292465 1035.312134,146.118317 1039.284546,149.645630 
	C1044.605713,154.370422 1050.366943,158.599670 1056.020752,163.583252 
	C1056.165283,163.830704 1056.309937,164.078156 1056.454468,164.325623 
	C1056.537842,163.849442 1056.621094,163.373276 1056.790039,161.977234 
M502.035034,479.503540 
	C510.861786,473.270966 519.714111,467.074249 528.510071,460.798401 
	C547.450500,447.284576 566.387695,433.765991 585.279053,420.183746 
	C612.817139,400.384735 640.124695,380.257538 667.920471,360.827972 
	C679.141052,352.984650 685.661743,342.301178 689.346252,329.889679 
	C692.978516,317.654144 695.092590,304.967987 698.006104,291.880737 
	C695.493408,292.160095 693.669067,292.142548 691.964172,292.585144 
	C659.866638,300.917419 627.781738,309.298431 595.701416,317.696930 
	C594.162048,318.099945 592.368469,318.384094 591.236877,319.356354 
	C582.729004,326.666138 574.341125,334.116302 565.947876,341.558868 
	C556.682861,349.774384 547.500061,358.083282 538.194763,366.252686 
	C525.434875,377.454865 512.614075,388.587952 499.778107,399.703033 
	C493.182098,405.414734 486.515930,411.046021 479.845398,416.670837 
	C474.716583,420.995605 471.434296,425.438599 471.729462,433.182831 
	C472.522003,453.977203 472.000000,474.821655 472.000000,495.646240 
	C472.000000,497.214233 472.000000,498.782196 472.000000,501.241455 
	C482.404175,493.749969 491.952515,486.874695 502.035034,479.503540 
z"/>
<path fill="#000000" opacity="1.000000" stroke="none" 
	d="
M101.531342,0.999999 
	C101.366508,1.665436 100.820290,2.789851 100.086784,2.929319 
	C80.743431,6.607255 63.342243,14.573584 47.861858,26.666588 
	C24.445534,44.959003 10.102245,69.027306 3.085821,97.690720 
	C2.678228,99.355820 2.144754,100.990089 1.334931,102.319351 
	C1.000000,68.406395 1.000000,34.812790 1.000000,1.000000 
	C34.353909,1.000000 67.708298,1.000000 101.531342,0.999999 
z"/>
<path fill="#000000" opacity="1.000000" stroke="none" 
	d="
M1081.000000,101.531357 
	C1080.334595,101.366508 1079.210327,100.820244 1079.070923,100.086731 
	C1075.392700,80.743439 1067.426270,63.342327 1055.333374,47.861923 
	C1037.040894,24.445518 1012.972595,10.102276 984.309204,3.085783 
	C982.644104,2.678194 981.009888,2.144722 979.680664,1.334915 
	C1013.593567,1.000000 1047.187134,1.000000 1081.000000,1.000000 
	C1081.000000,34.353909 1081.000000,67.708298 1081.000000,101.531357 
z"/>
<path fill="#000000" opacity="1.000000" stroke="none" 
	d="
M0.999994,980.468628 
	C1.665426,980.633484 2.789850,981.179688 2.929325,981.913208 
	C6.607303,1001.256592 14.573617,1018.657776 26.666674,1034.138184 
	C44.959110,1057.554443 69.027245,1071.897827 97.690613,1078.914307 
	C99.355736,1079.321777 100.990044,1079.855225 102.319336,1080.665039 
	C68.406395,1081.000000 34.812794,1081.000000 1.000000,1081.000000 
	C1.000000,1047.646118 1.000000,1014.291687 0.999994,980.468628 
z"/>
<path fill="#000000" opacity="1.000000" stroke="none" 
	d="
M980.468628,1081.000000 
	C980.633484,1080.334595 981.179626,1079.210205 981.913086,1079.070679 
	C1001.256470,1075.392578 1018.657776,1067.426514 1034.138184,1055.333374 
	C1057.554443,1037.040894 1071.897827,1012.972595 1078.914307,984.309204 
	C1079.321777,982.644104 1079.855225,981.009827 1080.665039,979.680664 
	C1081.000000,1013.593567 1081.000000,1047.187134 1081.000000,1081.000000 
	C1047.646118,1081.000000 1014.291687,1081.000000 980.468628,1081.000000 
z"/>
<path fill="#CD5334" opacity="1.000000" stroke="none" 
	d="
M27.808899,791.099731 
	C29.619555,792.655151 31.644468,794.023438 33.198662,795.802856 
	C37.067471,800.232239 42.162544,800.577026 47.526253,801.088623 
	C61.582573,802.429443 75.623512,804.012939 89.615463,805.906860 
	C95.165077,806.658020 98.283409,804.528625 101.472900,800.224060 
	C109.876991,788.881775 118.890289,777.992798 127.551994,766.838623 
	C132.355606,760.652771 136.940765,754.297241 141.829422,747.743286 
	C142.977570,748.725647 143.994690,749.516541 144.921188,750.402283 
	C148.966537,754.269287 153.664688,755.224731 159.278610,755.138672 
	C181.356430,754.800171 203.442505,755.000000 226.860275,755.000000 
	C222.745728,761.347412 219.567093,766.136902 216.532211,771.015808 
	C215.804047,772.186401 215.089981,773.678223 215.157425,774.981506 
	C215.660019,784.690369 216.601593,794.382935 216.844925,804.094666 
	C216.912903,806.807800 215.711105,810.033691 214.037338,812.215454 
	C209.730621,817.828979 204.943344,823.090698 200.142700,828.303833 
	C194.816345,834.087769 194.848053,837.057190 200.695435,842.192688 
	C201.893768,843.245239 203.282349,844.266846 204.033752,845.610107 
	C207.111237,851.111633 211.777191,852.152832 217.758209,852.229492 
	C223.044022,852.297119 225.630798,849.469482 228.410675,846.123413 
	C229.231094,845.135925 229.898132,843.343811 230.810501,843.221008 
	C236.289658,842.483643 235.811615,839.279053 234.724075,836.313293 
	C237.502655,834.390137 240.087753,832.552429 242.722427,830.788818 
	C246.646118,828.162170 250.692612,825.710083 254.524399,822.957520 
	C258.504639,820.098267 262.221710,816.874329 266.179230,813.981384 
	C272.291107,809.513733 278.830994,805.575500 284.615540,800.727966 
	C296.453186,790.807983 307.711090,780.193298 319.605530,770.345154 
	C325.631958,765.355408 332.925110,761.893616 338.940704,756.893005 
	C351.310730,746.610229 366.137085,741.039185 380.100464,733.709106 
	C390.379669,728.313049 401.130432,726.037903 412.203125,723.854248 
	C418.035797,722.703979 423.604919,720.220886 429.298157,718.355286 
	C429.923035,718.150452 430.575287,717.966248 431.226288,717.913330 
	C437.664703,717.390015 442.122467,714.677979 443.880585,707.921509 
	C444.227753,706.587341 447.232880,705.230896 449.088135,705.116455 
	C463.325653,704.238892 477.610077,704.022217 491.824860,702.901917 
	C507.386780,701.675537 522.864197,699.358704 538.429321,698.199280 
	C546.144348,697.624634 553.973450,698.579285 561.750793,698.844666 
	C563.079285,698.889954 564.407593,698.944275 565.735657,699.000610 
	C573.482178,699.329224 581.237305,699.526794 588.973022,700.024658 
	C597.835876,700.595032 606.227661,698.966919 614.681946,696.294128 
	C623.224670,693.593323 632.132751,692.049072 640.878540,689.988342 
	C641.664917,689.803101 642.505432,689.677063 643.200439,689.301086 
	C650.530884,685.335144 658.479431,682.149719 664.972046,677.097229 
	C671.698914,671.862305 677.132874,664.918152 682.904236,658.515930 
	C689.537842,651.157288 695.555359,643.208069 702.536987,636.210205 
	C707.493958,631.241699 709.389099,625.284485 710.905029,618.969788 
	C716.039795,597.581055 720.799622,576.099182 726.181396,554.773743 
	C731.796753,532.522583 737.726074,510.343323 743.974121,488.261688 
	C748.496643,472.278351 754.470215,456.683563 758.521545,440.594421 
	C763.684448,420.091095 774.245056,402.094452 783.275208,383.396576 
	C789.047119,371.445251 792.390991,359.242889 793.145569,345.980804 
	C793.989807,331.143433 797.171021,316.616486 801.264038,302.297272 
	C802.876831,296.655060 803.067688,290.528625 805.198181,285.132874 
	C807.588745,279.078644 811.052124,273.335968 814.743164,267.932068 
	C821.206299,258.469513 827.843323,249.076996 835.100403,240.223053 
	C839.681580,234.633850 845.461182,230.010818 850.824402,225.086349 
	C853.112000,222.985916 856.241699,221.627701 858.065979,219.230133 
	C863.712524,211.809219 872.800415,211.028656 880.203125,207.043777 
	C882.644775,205.729462 885.127258,204.491364 887.580627,203.198624 
	C896.917358,198.278778 906.899597,200.123795 916.740295,200.371429 
	C936.092773,200.858414 953.791199,209.109146 972.616333,212.255951 
	C984.968323,214.320724 997.053040,218.162704 1009.112915,221.701477 
	C1013.418396,222.964828 1016.761047,222.494873 1020.190063,219.909470 
	C1028.490601,213.650940 1036.875366,207.504303 1045.187500,201.261185 
	C1047.705078,199.370255 1048.512329,197.740372 1046.354736,194.309418 
	C1043.175049,189.253372 1041.344116,183.349030 1038.924927,177.773834 
	C1044.839844,174.182724 1050.540527,170.721649 1057.000000,166.799973 
	C1057.000000,169.620178 1057.000000,171.533051 1057.000000,173.445923 
	C1057.000000,434.765778 1057.041748,696.085693 1056.770752,957.405212 
	C1056.763672,964.278687 1053.590454,971.224121 1051.453491,977.997070 
	C1049.646362,983.724182 1047.643311,989.473450 1044.943237,994.816895 
	C1039.579590,1005.431702 1032.677979,1015.120056 1024.057617,1023.321045 
	C1011.984619,1034.806519 998.276367,1043.406616 982.520996,1049.719849 
	C969.289307,1055.021851 956.244568,1056.052612 942.529358,1056.049194 
	C670.710083,1055.983154 398.890747,1055.995361 127.071449,1056.022705 
	C118.850731,1056.023560 111.574066,1053.166870 103.968781,1050.361084 
	C94.999130,1047.051880 86.079636,1043.834229 78.533218,1038.036133 
	C70.638321,1031.970337 62.783493,1025.631836 56.020786,1018.378174 
	C49.929504,1011.844421 45.206650,1004.000793 40.157852,996.546936 
	C38.274357,993.766296 36.939850,990.540771 35.768040,987.365662 
	C32.954254,979.741394 30.360762,972.035156 27.741732,964.340454 
	C27.326162,963.119629 27.031206,961.786865 27.030918,960.505798 
	C27.018272,904.343018 27.045107,848.180176 27.283211,791.557739 
	C27.499231,791.098145 27.808893,791.099731 27.808899,791.099731 
M442.348267,990.128357 
	C445.884888,990.752197 449.416595,991.878235 452.959015,991.913086 
	C468.597992,992.066895 484.070923,992.286316 499.448120,987.273315 
	C513.110046,982.819641 525.596008,976.639526 537.422363,968.812805 
	C548.884827,961.226868 557.768677,950.929871 566.107361,940.220947 
	C570.182312,934.987732 574.147583,929.421814 576.850098,923.415894 
	C583.581238,908.456970 589.108887,893.235779 590.348572,876.415283 
	C591.468567,861.218384 590.796265,846.423706 586.334656,832.048340 
	C582.937317,821.102051 578.404907,810.587341 572.238037,800.606628 
	C566.672241,791.598633 560.341492,783.243408 552.595886,776.596802 
	C543.072449,768.424805 532.566772,760.597107 521.175171,755.619873 
	C508.927887,750.268677 495.332764,747.182068 482.015930,745.301880 
	C464.460205,742.823364 447.057434,746.099731 430.307007,751.927185 
	C416.353333,756.781738 403.424469,763.752197 392.265594,773.424255 
	C385.832886,778.999939 380.447266,785.777283 374.532776,791.958740 
	C364.970062,801.952942 358.256409,813.693726 354.069336,826.754517 
	C351.192963,835.726990 348.230469,844.880432 347.150848,854.167358 
	C345.809906,865.701721 345.185730,877.581665 346.392700,889.087769 
	C348.158844,905.924011 354.383759,921.634094 363.534485,935.992188 
	C369.596252,945.503540 376.510315,954.293457 385.149628,961.730713 
	C401.602600,975.894226 420.312042,985.380676 442.348267,990.128357 
M990.523254,250.060852 
	C988.942505,248.168701 987.670044,245.846573 985.729980,244.455383 
	C974.581238,236.460541 964.149658,227.729477 951.131836,222.150192 
	C929.575256,212.911179 907.613586,211.426529 885.494019,216.580429 
	C866.862732,220.921570 849.881592,230.028458 836.580078,244.206406 
	C824.286011,257.310516 814.832825,272.319153 810.386230,290.122589 
	C806.157837,307.052521 806.247253,323.916473 809.875854,340.901276 
	C812.887024,354.996094 819.281799,367.537384 827.603577,379.069214 
	C838.408081,394.041260 852.530334,405.141449 869.202515,413.066162 
	C889.636230,422.778870 911.148071,426.008545 933.243958,421.856659 
	C965.530457,415.789886 989.947876,397.726227 1005.719543,369.091888 
	C1012.717896,356.385986 1016.886841,342.204926 1017.981567,327.454132 
	C1019.356079,308.933075 1015.085938,291.367554 1007.153442,274.932770 
	C1002.965271,266.255646 996.406067,258.722931 990.523254,250.060852 
z"/>
<path fill="#17BEBB" opacity="1.000000" stroke="none" 
	d="
M27.292568,788.900696 
	C27.255239,786.568970 27.185280,784.237183 27.185225,781.905457 
	C27.180233,568.927185 27.262575,355.948792 27.010294,142.970779 
	C26.991974,127.503082 28.718887,112.657784 34.782013,98.547684 
	C42.859421,79.749947 54.141766,63.239399 70.701233,50.647171 
	C82.740837,41.491955 95.890182,34.451061 110.379250,30.505518 
	C119.098518,28.131161 127.877556,25.978249 137.323074,25.986712 
	C405.962158,26.227417 674.601501,26.214333 943.240723,26.052542 
	C953.580383,26.046316 963.229309,28.043009 973.048889,30.805595 
	C985.194763,34.222633 996.870483,38.648479 1006.940552,46.128151 
	C1016.126892,52.951431 1025.493042,59.891338 1031.858643,69.759315 
	C1037.086182,77.863106 1042.942993,85.739456 1046.859497,94.462540 
	C1051.152344,104.023788 1053.560913,114.433846 1056.722290,124.495522 
	C1057.009888,125.410866 1056.817017,126.482880 1056.816528,127.482132 
	C1056.811157,138.980499 1056.799805,150.478867 1056.550537,162.444626 
	C1056.310913,162.912018 1055.939209,163.041656 1055.939209,163.041656 
	C1050.366943,158.599670 1044.605713,154.370422 1039.284546,149.645630 
	C1035.312134,146.118317 1031.774902,145.292465 1027.068970,148.309418 
	C1022.594421,151.177963 1017.800720,149.782150 1017.287720,144.760132 
	C1016.188171,133.997360 1009.355835,128.413467 1001.354431,122.976418 
	C994.292664,118.177902 987.820068,112.519310 980.890442,107.513023 
	C979.608215,106.586624 977.270508,106.438423 975.619934,106.812790 
	C962.599609,109.765900 951.625305,116.408287 941.900024,125.480865 
	C936.799072,130.239517 931.460388,134.901962 925.629150,138.682495 
	C916.574158,144.553040 907.320251,149.657608 895.487488,148.179779 
	C880.589294,146.319122 865.925232,150.229294 851.658447,153.659317 
	C844.193237,155.454102 837.694031,161.620911 831.001465,166.170547 
	C824.858398,170.346664 818.868835,174.792023 813.126099,179.502151 
	C806.538269,184.905533 800.258789,190.689026 793.915161,196.385117 
	C787.762085,201.910080 781.580322,207.411911 775.624634,213.145645 
	C768.667053,219.843872 761.926392,226.768051 755.120667,233.623108 
	C752.056519,236.709488 749.341064,240.210617 745.981689,242.921753 
	C737.997009,249.365692 730.005859,255.883591 721.438721,261.486969 
	C717.514282,264.053680 712.245728,264.601624 707.553894,265.951019 
	C697.237000,268.918213 686.843689,271.631866 676.582092,274.776917 
	C658.347961,280.365479 640.265320,286.457825 621.977295,291.858643 
	C601.402405,297.934814 581.342651,304.885040 563.728943,317.686707 
	C551.174805,326.811066 538.042053,335.140045 525.503479,344.284668 
	C511.178925,354.731903 497.030090,365.445038 483.213715,376.551147 
	C477.979858,380.758362 473.864258,386.363739 469.281189,391.370514 
	C466.996735,393.866211 464.807678,396.449219 462.407227,399.184509 
	C461.600952,398.659515 460.881439,398.308350 460.304108,397.796692 
	C455.502594,393.541443 450.868927,393.348694 445.161072,396.786163 
	C439.076172,400.450684 431.771179,401.921722 426.737152,407.617798 
	C424.463684,410.190277 423.262695,411.609131 426.154572,414.893707 
	C434.157990,423.983826 434.159515,424.347351 426.424957,433.992096 
	C419.541748,442.575195 411.946960,450.586304 405.016632,459.133972 
	C403.067413,461.538086 402.020081,464.847595 401.137726,467.908630 
	C398.857788,475.818146 392.702911,479.386780 385.755127,481.926819 
	C382.515015,483.111420 378.955444,483.422119 375.611694,484.114227 
	C375.290894,483.304871 374.989227,482.890900 375.087708,482.742584 
	C381.024170,473.801117 372.882446,468.450043 369.469788,462.203278 
	C365.904236,455.676727 361.525970,449.469727 356.682251,443.827637 
	C354.761810,441.590698 350.703491,440.825104 347.468933,440.283997 
	C346.381287,440.102051 344.641876,442.545868 343.531769,444.036407 
	C341.311340,447.017792 339.335388,450.180328 337.231140,453.249359 
	C324.842133,471.318695 312.396057,489.349274 300.079956,507.468170 
	C296.223999,513.140991 292.634369,519.000488 289.078247,524.868713 
	C287.607300,527.295959 287.429504,529.153870 290.459015,531.427673 
	C295.199738,534.985840 298.906921,539.893921 303.480713,543.717163 
	C304.960144,544.953857 308.308502,545.584290 309.900970,544.757263 
	C315.130676,542.041138 320.214172,538.864380 324.820953,535.195496 
	C327.562866,533.011719 328.810577,532.394714 331.188446,535.531616 
	C335.943085,541.804077 336.335205,546.780945 331.717957,552.797241 
	C322.840607,564.364441 313.869598,575.861450 305.167389,587.558716 
	C304.348846,588.658936 304.580017,591.325317 305.366425,592.641724 
	C306.420959,594.406921 308.492188,595.564697 309.724518,596.634155 
	C307.002380,601.670471 304.858887,606.203064 302.208984,610.417175 
	C297.182831,618.410156 291.922485,626.258545 286.632568,634.081177 
	C285.262146,636.107727 284.516357,637.717773 286.940948,639.411316 
	C292.021423,642.959778 294.498352,651.489929 291.923645,657.176086 
	C289.125427,663.356018 285.905701,669.351501 283.285492,675.601624 
	C282.545593,677.366516 283.253418,679.742615 283.315796,681.837830 
	C283.347626,682.905701 283.852905,684.222473 283.403931,684.998352 
	C280.803619,689.491577 278.047546,693.899292 275.217834,698.253906 
	C272.478912,702.468872 269.684448,706.656494 266.697784,710.695923 
	C265.908905,711.762939 264.402649,712.662964 263.086487,712.916687 
	C255.408615,714.396667 247.696091,715.702271 239.982132,716.987915 
	C231.717377,718.365295 223.474030,719.982544 215.155609,720.897522 
	C205.657852,721.942261 196.089096,722.794312 186.548294,722.824707 
	C180.847794,722.842834 175.141739,721.124634 169.334396,720.169861 
	C173.082932,715.707214 176.537674,711.846313 179.709915,707.765747 
	C186.529724,698.993164 187.046570,685.761536 180.720398,676.882446 
	C180.031876,675.915955 176.870682,675.550293 175.699768,676.272888 
	C166.657700,681.851807 157.787979,687.714233 148.936218,693.596191 
	C141.776672,698.353760 134.585693,703.081116 127.638641,708.137817 
	C111.976448,719.538208 96.280746,730.905884 80.936630,742.725586 
	C69.329826,751.666443 58.062035,761.074524 46.999641,770.684814 
	C40.530960,776.304199 34.761665,782.728638 28.180542,788.858582 
	C27.683371,788.926208 27.292568,788.900696 27.292568,788.900696 
z"/>
<path fill="#CD5334" opacity="1.000000" stroke="none" 
	d="
M501.767944,479.751465 
	C491.952515,486.874695 482.404175,493.749969 472.000000,501.241455 
	C472.000000,498.782196 472.000000,497.214233 472.000000,495.646240 
	C472.000000,474.821655 472.522003,453.977203 471.729462,433.182831 
	C471.434296,425.438599 474.716583,420.995605 479.845398,416.670837 
	C486.515930,411.046021 493.182098,405.414734 499.778107,399.703033 
	C512.614075,388.587952 525.434875,377.454865 538.194763,366.252686 
	C547.500061,358.083282 556.682861,349.774384 565.947876,341.558868 
	C574.341125,334.116302 582.729004,326.666138 591.236877,319.356354 
	C592.368469,318.384094 594.162048,318.099945 595.701416,317.696930 
	C627.781738,309.298431 659.866638,300.917419 691.964172,292.585144 
	C693.669067,292.142548 695.493408,292.160095 698.006104,291.880737 
	C695.092590,304.967987 692.978516,317.654144 689.346252,329.889679 
	C685.661743,342.301178 679.141052,352.984650 667.920471,360.827972 
	C640.124695,380.257538 612.817139,400.384735 585.279053,420.183746 
	C566.387695,433.765991 547.450500,447.284576 528.510071,460.798401 
	C519.714111,467.074249 510.861786,473.270966 501.767944,479.751465 
z"/>
<path fill="#58C1BE" opacity="1.000000" stroke="none" 
	d="
M1055.979980,163.312454 
	C1055.939209,163.041656 1056.310913,162.912018 1056.507568,162.904572 
	C1056.621094,163.373276 1056.537842,163.849442 1056.454468,164.325623 
	C1056.309937,164.078156 1056.165283,163.830704 1055.979980,163.312454 
z"/>
<path fill="#58C1BE" opacity="1.000000" stroke="none" 
	d="
M27.186848,789.259277 
	C27.292568,788.900696 27.683371,788.926208 27.870840,788.983276 
	C28.024734,789.501099 27.991158,789.961975 27.883236,790.761230 
	C27.808893,791.099731 27.499231,791.098145 27.345062,791.099060 
	C27.154303,790.605957 27.117714,790.111877 27.186848,789.259277 
z"/>
<path fill="#FAD8D6" opacity="1.000000" stroke="none" 
	d="
M441.923859,990.076050 
	C420.312042,985.380676 401.602600,975.894226 385.149628,961.730713 
	C376.510315,954.293457 369.596252,945.503540 363.534485,935.992188 
	C354.383759,921.634094 348.158844,905.924011 346.392700,889.087769 
	C345.185730,877.581665 345.809906,865.701721 347.150848,854.167358 
	C348.230469,844.880432 351.192963,835.726990 354.069336,826.754517 
	C358.256409,813.693726 364.970062,801.952942 374.532776,791.958740 
	C380.447266,785.777283 385.832886,778.999939 392.265594,773.424255 
	C403.424469,763.752197 416.353333,756.781738 430.307007,751.927185 
	C447.057434,746.099731 464.460205,742.823364 482.015930,745.301880 
	C495.332764,747.182068 508.927887,750.268677 521.175171,755.619873 
	C532.566772,760.597107 543.072449,768.424805 552.595886,776.596802 
	C560.341492,783.243408 566.672241,791.598633 572.238037,800.606628 
	C578.404907,810.587341 582.937317,821.102051 586.334656,832.048340 
	C590.796265,846.423706 591.468567,861.218384 590.348572,876.415283 
	C589.108887,893.235779 583.581238,908.456970 576.850098,923.415894 
	C574.147583,929.421814 570.182312,934.987732 566.107361,940.220947 
	C557.768677,950.929871 548.884827,961.226868 537.422363,968.812805 
	C525.596008,976.639526 513.110046,982.819641 499.448120,987.273315 
	C484.070923,992.286316 468.597992,992.066895 452.959015,991.913086 
	C449.416595,991.878235 445.884888,990.752197 441.923859,990.076050 
z"/>
<path fill="#FAD8D6" opacity="1.000000" stroke="none" 
	d="
M990.720337,250.367188 
	C996.406067,258.722931 1002.965271,266.255646 1007.153442,274.932770 
	C1015.085938,291.367554 1019.356079,308.933075 1017.981567,327.454132 
	C1016.886841,342.204926 1012.717896,356.385986 1005.719543,369.091888 
	C989.947876,397.726227 965.530457,415.789886 933.243958,421.856659 
	C911.148071,426.008545 889.636230,422.778870 869.202515,413.066162 
	C852.530334,405.141449 838.408081,394.041260 827.603577,379.069214 
	C819.281799,367.537384 812.887024,354.996094 809.875854,340.901276 
	C806.247253,323.916473 806.157837,307.052521 810.386230,290.122589 
	C814.832825,272.319153 824.286011,257.310516 836.580078,244.206406 
	C849.881592,230.028458 866.862732,220.921570 885.494019,216.580429 
	C907.613586,211.426529 929.575256,212.911179 951.131836,222.150192 
	C964.149658,227.729477 974.581238,236.460541 985.729980,244.455383 
	C987.670044,245.846573 988.942505,248.168701 990.720337,250.367188 
z"/>
</svg>